<svg width="297" height="226" viewBox="0 0 297 226" fill="none" xmlns="http://www.w3.org/2000/svg">
<g filter="url(#filter0_f_1_66)">
<rect x="39.2046" y="20.2437" width="299" height="149.5" transform="rotate(7 39.2046 20.2437)" fill="#4A4A4A"/>
</g>
<rect x="37.2195" y="20" width="299" height="149.5" rx="8" transform="rotate(7 37.2195 20)" fill="#1A0C22"/>
<path d="M79.6335 48.4659L77.5252 65.637L75.2672 65.3597L76.8393 52.5559L69.56 64.659L67.9719 64.464L63.8152 50.9315L62.24 63.7602L59.982 63.4829L62.0903 46.3119L64.522 46.6105L69.1316 61.5838L77.2266 48.1704L79.6335 48.4659ZM93.2475 53.7645L82.6033 72.7589L80.2708 72.4725L83.755 66.2508L79.9226 52.1284L82.4287 52.4362L85.3439 63.9775L90.915 53.4781L93.2475 53.7645ZM101.642 52.9061L100.932 58.6877L107.234 59.4616L107.006 61.3226L100.703 60.5487L99.972 66.504L107.019 67.3693L106.791 69.2303L97.4855 68.0878L99.6121 50.7678L108.917 51.9104L108.689 53.7714L101.642 52.9061ZM115.815 70.3384L113.211 64.8803L109.488 69.5615L107.13 69.272L112.351 63.062L108.8 55.6741L111.356 55.988L113.963 61.4212L117.659 56.7618L120.016 57.0513L114.823 63.2395L118.371 70.6522L115.815 70.3384ZM122.723 59.9277C123.265 59.205 124.006 58.6411 124.946 58.2359C125.904 57.8163 126.971 57.6785 128.145 57.8227C129.353 57.971 130.409 58.3946 131.314 59.0934C132.235 59.7943 132.912 60.7086 133.345 61.8363C133.779 62.9476 133.911 64.198 133.741 65.5875C133.572 66.9606 133.141 68.1502 132.446 69.1564C131.752 70.1626 130.872 70.9025 129.806 71.3762C128.757 71.8518 127.628 72.0156 126.421 71.8673C125.263 71.7251 124.269 71.3428 123.438 70.7203C122.627 70.0833 122.037 69.3476 121.669 68.5132L120.569 77.4709L118.311 77.1937L120.773 57.1442L123.031 57.4215L122.723 59.9277ZM131.433 65.3042C131.559 64.2786 131.462 63.3599 131.142 62.5481C130.822 61.7364 130.33 61.0884 129.668 60.604C129.022 60.1217 128.277 59.8287 127.433 59.7251C126.606 59.6236 125.811 59.7359 125.049 60.0621C124.306 60.3738 123.671 60.892 123.146 61.6167C122.639 62.3269 122.323 63.1865 122.199 64.1956C122.073 65.2213 122.169 66.1482 122.488 66.9765C122.824 67.7902 123.315 68.4466 123.959 68.9454C124.621 69.4298 125.366 69.7227 126.193 69.8243C127.037 69.9279 127.83 69.8238 128.574 69.5121C129.336 69.1859 129.971 68.6677 130.478 67.9575C130.987 67.2308 131.305 66.3464 131.433 65.3042ZM147.689 66.8216C147.636 67.2517 147.555 67.7036 147.447 68.1772L136.578 66.8427C136.497 68.1928 136.823 69.2991 137.556 70.1616C138.308 71.0096 139.28 71.5067 140.471 71.653C141.447 71.7728 142.285 71.649 142.985 71.2816C143.704 70.8997 144.242 70.3445 144.6 69.616L147.032 69.9146C146.508 71.1768 145.649 72.1544 144.455 72.8474C143.264 73.524 141.858 73.7627 140.237 73.5636C138.946 73.4052 137.824 72.9735 136.869 72.2686C135.931 71.5657 135.238 70.6494 134.789 69.5196C134.342 68.3732 134.205 67.097 134.377 65.6909C134.55 64.2848 134.983 63.0869 135.675 62.0973C136.367 61.1076 137.253 60.3935 138.331 59.955C139.428 59.5019 140.638 59.3566 141.961 59.5191C143.251 59.6775 144.358 60.0989 145.282 60.7832C146.205 61.4675 146.871 62.3385 147.278 63.396C147.704 64.439 147.841 65.5809 147.689 66.8216ZM145.414 66.0637C145.52 65.2035 145.42 64.444 145.115 63.7852C144.811 63.1099 144.348 62.5745 143.725 62.1789C143.121 61.7689 142.421 61.5151 141.627 61.4176C140.486 61.2774 139.465 61.5215 138.565 62.1499C137.682 62.7802 137.103 63.7335 136.829 65.0096L145.414 66.0637ZM151.938 63.2126C152.431 62.4838 153.067 61.9491 153.848 61.6083C154.645 61.2696 155.573 61.1653 156.632 61.2953L156.345 63.6278L155.75 63.5546C153.219 63.2439 151.785 64.4615 151.448 67.2076L150.54 74.602L148.282 74.3248L149.951 60.7269L152.209 61.0041L151.938 63.2126ZM160.245 63.8799L159.261 71.8947C159.18 72.5564 159.262 73.0451 159.509 73.3609C159.758 73.6601 160.23 73.8523 160.924 73.9376L162.587 74.1418L162.352 76.0524L160.318 75.8026C159.06 75.6482 158.153 75.2429 157.595 74.5868C157.038 73.9306 156.84 72.9408 157.003 71.6174L157.987 63.6026L156.225 63.3863L156.454 61.5253L158.215 61.7416L158.636 58.3173L160.894 58.5946L160.473 62.0188L164.022 62.4545L163.793 64.3156L160.245 63.8799ZM166.706 60.5424C166.276 60.4896 165.931 60.2961 165.669 59.9617C165.408 59.6274 165.304 59.2452 165.357 58.8151C165.41 58.385 165.603 58.0393 165.937 57.7781C166.272 57.5169 166.654 57.4127 167.084 57.4655C167.498 57.5163 167.827 57.7079 168.071 58.0401C168.333 58.3745 168.437 58.7567 168.384 59.1868C168.331 59.6169 168.138 59.9625 167.803 60.2238C167.486 60.487 167.12 60.5932 166.706 60.5424ZM167.527 62.8849L165.857 76.4828L163.599 76.2055L165.269 62.6077L167.527 62.8849ZM173.003 77.5869C171.961 77.4589 171.048 77.1705 170.263 76.7215C169.481 76.256 168.889 75.6795 168.486 74.992C168.085 74.288 167.911 73.5193 167.963 72.6861L170.296 72.9725C170.278 73.6589 170.525 74.2516 171.034 74.7508C171.561 75.252 172.287 75.5595 173.213 75.6732C174.073 75.7788 174.775 75.6719 175.318 75.3523C175.861 75.0328 176.168 74.5835 176.239 74.0045C176.312 73.409 176.101 72.9381 175.607 72.5919C175.114 72.2292 174.33 71.8391 173.257 71.4218C172.28 71.0332 171.485 70.667 170.873 70.3231C170.279 69.9647 169.783 69.4924 169.384 68.9061C169.005 68.3054 168.869 67.5667 168.976 66.6899C169.062 65.9951 169.347 65.3836 169.831 64.8554C170.316 64.3272 170.959 63.9444 171.761 63.707C172.564 63.453 173.454 63.386 174.43 63.5058C175.935 63.6906 177.105 64.2204 177.938 65.0951C178.771 65.9698 179.139 67.0729 179.042 68.4044L176.784 68.1272C176.822 67.4098 176.603 66.8035 176.126 66.3084C175.666 65.8153 174.998 65.515 174.121 65.4073C173.31 65.3078 172.644 65.4023 172.122 65.6908C171.599 65.9793 171.304 66.4047 171.234 66.9672C171.18 67.4138 171.275 67.8033 171.519 68.1356C171.782 68.4534 172.118 68.7296 172.526 68.9644C172.952 69.1847 173.541 69.4501 174.292 69.7606C175.235 70.1451 175.997 70.5073 176.576 70.8471C177.158 71.1704 177.632 71.6149 178 72.1805C178.383 72.7481 178.533 73.4465 178.448 74.2757C178.356 75.0201 178.067 75.6647 177.58 76.2094C177.094 76.7542 176.449 77.1535 175.645 77.4075C174.86 77.6469 173.979 77.7067 173.003 77.5869ZM192.998 72.3848C192.945 72.815 192.864 73.2668 192.756 73.7405L181.888 72.406C181.806 73.7561 182.132 74.8624 182.865 75.7249C183.618 76.5729 184.589 77.07 185.78 77.2163C186.756 77.3361 187.594 77.2123 188.294 76.8449C189.013 76.4629 189.551 75.9077 189.909 75.1793L192.341 75.4779C191.817 76.74 190.958 77.7176 189.764 78.4107C188.573 79.0872 187.167 79.326 185.546 79.1269C184.255 78.9685 183.133 78.5368 182.178 77.8319C181.24 77.129 180.547 76.2127 180.098 75.0828C179.651 73.9365 179.514 72.6603 179.687 71.2542C179.859 69.8481 180.292 68.6502 180.984 67.6605C181.677 66.6709 182.562 65.9568 183.64 65.5182C184.737 65.0652 185.947 64.9199 187.27 65.0824C188.561 65.2408 189.667 65.6622 190.591 66.3465C191.514 67.0308 192.18 67.9017 192.587 68.9593C193.013 70.0023 193.15 71.1442 192.998 72.3848ZM190.723 71.627C190.829 70.7668 190.729 70.0073 190.424 69.3485C190.121 68.6732 189.657 68.1377 189.034 67.7422C188.43 67.3321 187.73 67.0783 186.936 66.9808C185.795 66.8407 184.774 67.0848 183.874 67.7131C182.991 68.3435 182.412 69.2967 182.138 70.5728L190.723 71.627Z" fill="white"/>
<path d="M55.8564 92.9663L53.5875 92.6877L52.5192 101.388L51.2685 101.235L52.3368 92.5341L50.979 92.3674L51.1085 91.3133L52.4663 91.48L52.5496 90.8011C52.6798 89.7411 53.0436 88.9939 53.641 88.5594C54.2503 88.1265 55.1624 87.9846 56.3772 88.1337L56.2456 89.2057C55.4357 89.1062 54.845 89.1909 54.4735 89.4596C54.1139 89.7298 53.8895 90.2282 53.8002 90.9547L53.7169 91.6336L55.9858 91.9122L55.8564 92.9663ZM57.9204 93.9088C58.269 93.335 58.7436 92.9158 59.3444 92.651C59.957 92.3877 60.6743 92.3065 61.4961 92.4074L61.3359 93.7116L60.9965 93.6699C60.0913 93.5588 59.3348 93.7137 58.7269 94.1348C58.1191 94.5559 57.745 95.3381 57.6046 96.4815L56.9355 101.931L55.6849 101.777L56.8826 92.0223L58.1332 92.1759L57.9204 93.9088ZM65.3382 103.107C64.4211 102.995 63.6182 102.691 62.9294 102.195C62.2541 101.689 61.7481 101.034 61.4114 100.231C61.0882 99.418 60.9887 98.505 61.113 97.4926C61.2373 96.4802 61.5599 95.6252 62.0808 94.9275C62.6032 94.2178 63.2585 93.7059 64.0466 93.3916C64.8363 93.0654 65.6897 92.9586 66.6068 93.0712C67.5239 93.1838 68.3261 93.4939 69.0133 94.0014C69.714 94.4985 70.2259 95.1538 70.5492 95.9672C70.8859 96.7703 70.992 97.678 70.8677 98.6904C70.7449 99.6908 70.4223 100.546 69.8999 101.256C69.3775 101.965 68.7156 102.482 67.914 102.807C67.1139 103.12 66.2553 103.22 65.3382 103.107ZM65.472 102.018C66.1152 102.097 66.7283 102.027 67.3112 101.808C67.8957 101.578 68.3905 101.191 68.7956 100.648C69.2142 100.095 69.4761 99.39 69.5814 98.5324C69.6867 97.6749 69.6084 96.9338 69.3466 96.3092C69.0862 95.6728 68.6996 95.178 68.1868 94.8248C67.6755 94.4598 67.0983 94.2378 66.4551 94.1588C65.8119 94.0798 65.1981 94.1556 64.6137 94.3861C64.0307 94.6047 63.5359 94.9913 63.1293 95.5458C62.736 96.09 62.4867 96.7908 62.3815 97.6484C62.2762 98.5059 62.3477 99.2522 62.5962 99.8872C62.858 100.512 63.2387 101.006 63.7381 101.369C64.2509 101.723 64.8288 101.939 65.472 102.018ZM77.2699 94.3442C78.4372 94.4875 79.3454 94.9678 79.9947 95.785C80.6454 96.5903 80.8866 97.6778 80.7184 99.0475L80.0165 104.765L78.7837 104.613L79.4682 99.0391C79.5983 97.979 79.4298 97.1362 78.9625 96.5106C78.5072 95.8865 77.821 95.5181 76.9039 95.4055C75.9629 95.29 75.176 95.4956 74.5431 96.0224C73.9102 96.5492 73.5228 97.3902 73.3809 98.5456L72.7272 103.87L71.4766 103.716L72.6743 93.9613L73.925 94.1148L73.7209 95.7764C74.1037 95.2189 74.606 94.8211 75.2276 94.5831C75.8507 94.3332 76.5315 94.2535 77.2699 94.3442ZM84.4045 96.4715L83.6608 102.528C83.5877 103.124 83.6504 103.548 83.8489 103.802C84.0474 104.057 84.4325 104.219 85.0043 104.289L86.1477 104.429L86.0161 105.501L84.6761 105.337C83.7947 105.228 83.1645 104.946 82.7855 104.488C82.4079 104.018 82.2768 103.313 82.3924 102.372L83.136 96.3158L81.7782 96.1491L81.9076 95.095L83.2654 95.2617L83.566 92.8141L84.8344 92.9698L84.5339 95.4175L87.2138 95.7465L87.0844 96.8006L84.4045 96.4715ZM93.9406 99.2202L93.8112 100.274L86.8614 99.4209L86.9908 98.3669L93.9406 99.2202ZM104.685 102.335C104.632 102.764 104.58 103.09 104.529 103.313L96.4355 102.319C96.3806 103.062 96.4817 103.715 96.7389 104.279C96.9962 104.842 97.37 105.293 97.8604 105.632C98.3523 105.958 98.908 106.159 99.5273 106.235C100.337 106.335 101.04 106.222 101.636 105.896C102.244 105.572 102.679 105.087 102.939 104.442L104.261 104.604C103.906 105.528 103.298 106.245 102.438 106.756C101.59 107.256 100.577 107.434 99.3979 107.289C98.4808 107.177 97.6838 106.873 97.007 106.379C96.3316 105.873 95.8316 105.219 95.5068 104.418C95.1955 103.606 95.1019 102.694 95.2262 101.681C95.3506 100.669 95.662 99.8063 96.1605 99.0938C96.6591 98.3812 97.2965 97.8671 98.0728 97.5513C98.849 97.2356 99.7017 97.1347 100.631 97.2488C101.56 97.3629 102.345 97.6648 102.986 98.1546C103.639 98.6458 104.108 99.2595 104.392 99.9957C104.69 100.721 104.787 101.501 104.685 102.335ZM103.421 102.143C103.522 101.418 103.449 100.781 103.203 100.23C102.968 99.6817 102.604 99.2442 102.112 98.9178C101.62 98.5914 101.065 98.3902 100.445 98.3142C99.5165 98.2001 98.6879 98.4006 97.9597 98.9157C97.2314 99.4308 96.7651 100.226 96.5605 101.301L103.421 102.143ZM111.034 98.4899C112.201 98.6333 113.11 99.1135 113.759 99.9307C114.41 100.736 114.651 101.824 114.483 103.193L113.781 108.91L112.548 108.759L113.232 103.185C113.363 102.125 113.194 101.282 112.727 100.656C112.272 100.032 111.585 99.6638 110.668 99.5512C109.727 99.4357 108.94 99.6413 108.307 100.168C107.674 100.695 107.287 101.536 107.145 102.691L106.492 108.015L105.241 107.862L106.439 98.107L107.689 98.2606L107.485 99.9221C107.868 99.3646 108.37 98.9668 108.992 98.7288C109.615 98.4789 110.296 98.3993 111.034 98.4899ZM115.504 104.153C115.627 103.152 115.937 102.302 116.434 101.601C116.933 100.889 117.558 100.373 118.31 100.054C119.076 99.7252 119.906 99.6155 120.799 99.7252C121.657 99.8305 122.405 100.134 123.045 100.636C123.685 101.137 124.124 101.741 124.364 102.448L125.048 96.8738L126.299 97.0273L124.676 110.248L123.425 110.094L123.693 107.915C123.312 108.557 122.754 109.057 122.021 109.414C121.29 109.76 120.466 109.876 119.548 109.764C118.655 109.654 117.877 109.347 117.213 108.842C116.562 108.339 116.08 107.681 115.769 106.869C115.47 106.059 115.381 105.153 115.504 104.153ZM124.024 105.217C124.12 104.431 124.044 103.72 123.796 103.085C123.547 102.45 123.163 101.938 122.643 101.547C122.134 101.159 121.547 100.923 120.88 100.841C120.189 100.756 119.551 100.835 118.965 101.078C118.379 101.32 117.888 101.719 117.494 102.275C117.112 102.821 116.872 103.499 116.773 104.309C116.675 105.107 116.743 105.828 116.978 106.474C117.227 107.109 117.605 107.621 118.113 108.01C118.623 108.387 119.224 108.617 119.915 108.702C120.581 108.784 121.209 108.698 121.796 108.444C122.395 108.191 122.892 107.786 123.287 107.23C123.682 106.674 123.927 106.003 124.024 105.217Z" fill="white"/>
<path d="M50.4025 121.754C50.8075 121.114 51.3698 120.621 52.0894 120.274C52.821 119.929 53.6453 119.812 54.5624 119.925C55.4557 120.035 56.2281 120.341 56.8796 120.844C57.5326 121.336 58.0089 121.986 58.3083 122.797C58.6211 123.597 58.7161 124.497 58.5933 125.498C58.4704 126.498 58.1597 127.355 57.6612 128.067C57.1745 128.781 56.5483 129.303 55.7825 129.632C55.0286 129.963 54.2109 130.074 53.3296 129.966C52.4005 129.852 51.6222 129.544 50.9945 129.044C50.3801 128.533 49.9598 127.92 49.7335 127.203L49.4702 129.347L48.2375 129.195L49.8608 115.975L51.0935 116.126L50.4025 121.754ZM57.3248 125.342C57.4243 124.532 57.349 123.816 57.0991 123.193C56.8625 122.559 56.4893 122.054 55.9795 121.677C55.4696 121.3 54.8693 121.069 54.1785 120.984C53.5115 120.902 52.8783 120.988 52.2791 121.241C51.6917 121.495 51.2006 121.9 50.8059 122.456C50.4112 123.012 50.1656 123.683 50.0691 124.469C49.9726 125.255 50.0485 125.966 50.297 126.601C50.5455 127.236 50.9239 127.748 51.4323 128.137C51.9526 128.527 52.5463 128.763 53.2133 128.845C53.9041 128.93 54.5424 128.851 55.1283 128.609C55.7157 128.354 56.2008 127.948 56.5836 127.391C56.9798 126.823 57.2268 126.14 57.3248 125.342ZM59.2508 125.579C59.3737 124.578 59.6777 123.727 60.1629 123.025C60.6614 122.312 61.2869 121.796 62.0394 121.478C62.8052 121.149 63.6347 121.039 64.528 121.149C65.4571 121.263 66.2287 121.575 66.8431 122.086C67.4693 122.598 67.8904 123.206 68.1063 123.909L68.3695 121.765L69.6201 121.919L68.4224 131.674L67.1718 131.52L67.4372 129.358C67.0456 129.987 66.4833 130.48 65.7503 130.838C65.0307 131.185 64.2064 131.301 63.2773 131.187C62.396 131.079 61.6235 130.772 60.9601 130.268C60.3086 129.765 59.8271 129.107 59.5157 128.295C59.2163 127.485 59.128 126.579 59.2508 125.579ZM67.7706 126.643C67.8672 125.857 67.7912 125.146 67.5427 124.511C67.2943 123.876 66.9099 123.363 66.3896 122.973C65.8812 122.584 65.2935 122.349 64.6265 122.267C63.9357 122.182 63.2973 122.261 62.7114 122.503C62.1255 122.746 61.6352 123.145 61.2405 123.701C60.8591 124.247 60.6188 124.924 60.5193 125.734C60.4213 126.532 60.4899 127.254 60.725 127.899C60.9734 128.534 61.3519 129.046 61.8603 129.435C62.3701 129.812 62.9705 130.043 63.6613 130.128C64.3283 130.21 64.9554 130.124 65.5428 129.869C66.1421 129.616 66.6391 129.212 67.0338 128.656C67.4285 128.1 67.6741 127.429 67.7706 126.643ZM70.2326 126.945C70.3569 125.933 70.6676 125.076 71.1647 124.376C71.6633 123.663 72.2947 123.148 73.0591 122.831C73.8249 122.502 74.6664 122.393 75.5835 122.506C76.7865 122.654 77.7385 123.073 78.4395 123.764C79.1525 124.456 79.5593 125.328 79.6598 126.38L78.3199 126.215C78.2394 125.492 77.9434 124.9 77.4319 124.438C76.9337 123.966 76.2737 123.679 75.4519 123.578C74.7968 123.498 74.1889 123.574 73.6283 123.808C73.0677 124.041 72.596 124.436 72.2132 124.994C71.8438 125.541 71.6064 126.243 71.5011 127.101C71.3958 127.958 71.4555 128.703 71.6801 129.335C71.9167 129.969 72.2787 130.467 72.7662 130.829C73.2537 131.191 73.825 131.412 74.4801 131.493C75.3019 131.594 76.0109 131.481 76.6071 131.155C77.2166 130.819 77.6486 130.304 77.9031 129.61L79.243 129.774C78.8939 130.747 78.289 131.489 77.4283 132C76.5676 132.511 75.5417 132.693 74.3507 132.547C73.4336 132.434 72.6425 132.131 71.9776 131.639C71.3142 131.134 70.826 130.482 70.5132 129.682C70.2019 128.87 70.1083 127.957 70.2326 126.945ZM85.3607 133.753L81.8784 128.883L81.3409 133.26L80.0903 133.106L81.7136 119.886L82.9642 120.039L82.0034 127.864L86.4691 123.988L88.22 124.203L82.9961 128.494L87.058 133.962L85.3607 133.753ZM94.5363 127.626L94.4069 128.68L87.4571 127.827L87.5865 126.773L94.5363 127.626ZM105.281 130.741C105.228 131.169 105.176 131.496 105.124 131.719L97.0312 130.725C96.9763 131.468 97.0774 132.121 97.3346 132.685C97.5919 133.248 97.9657 133.699 98.4561 134.038C98.948 134.364 99.5037 134.565 100.123 134.641C100.933 134.741 101.636 134.627 102.232 134.302C102.84 133.977 103.274 133.493 103.535 132.848L104.857 133.01C104.502 133.934 103.894 134.651 103.033 135.162C102.186 135.662 101.173 135.84 99.9936 135.695C99.0765 135.583 98.2795 135.279 97.6027 134.785C96.9273 134.279 96.4273 133.625 96.1025 132.824C95.7912 132.012 95.6976 131.099 95.822 130.087C95.9463 129.075 96.2577 128.212 96.7562 127.5C97.2548 126.787 97.8922 126.273 98.6685 125.957C99.4447 125.641 100.297 125.541 101.226 125.655C102.155 125.769 102.94 126.071 103.582 126.56C104.235 127.052 104.703 127.665 104.988 128.401C105.285 129.127 105.383 129.907 105.281 130.741ZM104.017 130.549C104.118 129.824 104.045 129.186 103.798 128.636C103.563 128.088 103.2 127.65 102.708 127.324C102.216 126.997 101.661 126.796 101.041 126.72C100.112 126.606 99.2836 126.806 98.5554 127.322C97.8272 127.837 97.3608 128.632 97.1562 129.707L104.017 130.549ZM111.63 126.896C112.797 127.039 113.705 127.519 114.355 128.337C115.005 129.142 115.247 130.229 115.078 131.599L114.377 137.316L113.144 137.165L113.828 131.591C113.958 130.531 113.79 129.688 113.323 129.062C112.867 128.438 112.181 128.07 111.264 127.957C110.323 127.842 109.536 128.047 108.903 128.574C108.27 129.101 107.883 129.942 107.741 131.097L107.087 136.421L105.837 136.268L107.034 126.513L108.285 126.666L108.081 128.328C108.464 127.77 108.966 127.373 109.588 127.135C110.211 126.885 110.892 126.805 111.63 126.896ZM116.1 132.559C116.223 131.558 116.533 130.708 117.03 130.007C117.528 129.294 118.154 128.779 118.906 128.46C119.672 128.131 120.502 128.021 121.395 128.131C122.252 128.236 123.001 128.54 123.641 129.041C124.28 129.543 124.72 130.147 124.96 130.854L125.644 125.28L126.895 125.433L125.271 138.654L124.021 138.5L124.288 136.321C123.907 136.963 123.35 137.463 122.617 137.82C121.886 138.166 121.061 138.282 120.144 138.169C119.251 138.06 118.472 137.753 117.809 137.248C117.158 136.745 116.676 136.087 116.365 135.275C116.065 134.465 115.977 133.559 116.1 132.559ZM124.62 133.623C124.716 132.837 124.64 132.126 124.392 131.491C124.143 130.856 123.759 130.344 123.239 129.953C122.73 129.564 122.142 129.329 121.475 129.247C120.785 129.162 120.146 129.241 119.56 129.484C118.974 129.726 118.484 130.125 118.089 130.681C117.708 131.227 117.468 131.905 117.368 132.714C117.27 133.512 117.339 134.234 117.574 134.88C117.822 135.515 118.201 136.027 118.709 136.415C119.219 136.792 119.819 137.023 120.51 137.108C121.177 137.19 121.804 137.104 122.392 136.849C122.991 136.597 123.488 136.192 123.883 135.636C124.277 135.08 124.523 134.409 124.62 133.623Z" fill="white"/>
<path d="M242.941 120.814L280.658 125.445" stroke="white" stroke-linecap="round"/>
<path d="M156.589 110.212L242.941 120.814" stroke="#CA8BA8" stroke-linecap="round"/>
<circle cx="242.506" cy="120.257" r="2.5" transform="rotate(7 242.506 120.257)" fill="#CA8BA8"/>
<path d="M229.175 145.367L278.803 151.46" stroke="white" stroke-linecap="round"/>
<path d="M154.734 136.226L229.175 145.367" stroke="#CA8BA8" stroke-linecap="round"/>
<circle cx="228.74" cy="144.809" r="2.5" transform="rotate(7 228.74 144.809)" fill="#CA8BA8"/>
<defs>
<filter id="filter0_f_1_66" x="0.985107" y="0.243744" width="354.991" height="224.825" filterUnits="userSpaceOnUse" color-interpolation-filters="sRGB">
<feFlood flood-opacity="0" result="BackgroundImageFix"/>
<feBlend mode="normal" in="SourceGraphic" in2="BackgroundImageFix" result="shape"/>
<feGaussianBlur stdDeviation="10" result="effect1_foregroundBlur_1_66"/>
</filter>
</defs>
</svg>
